<?xml version="1.0" standalone="no"?>
<svg xmlns:xlink="http://www.w3.org/1999/xlink" id="wave" style="transform:rotate(0deg); transition: 0.3s" viewBox="0 0 1440 200" version="1.1" xmlns="http://www.w3.org/2000/svg"><defs><linearGradient id="sw-gradient-0" x1="0" x2="0" y1="1" y2="0"><stop stop-color="rgba(0, 0, 0, 1)" offset="0%"/><stop stop-color="rgba(0, 0, 0, 1)" offset="100%"/></linearGradient></defs><path style="transform:translate(0, 0px); opacity:1" fill="url(#sw-gradient-0)" d="M0,60L48,80C96,100,192,140,288,140C384,140,480,100,576,76.7C672,53,768,47,864,66.7C960,87,1056,133,1152,143.3C1248,153,1344,127,1440,110C1536,93,1632,87,1728,90C1824,93,1920,107,2016,93.3C2112,80,2208,40,2304,36.7C2400,33,2496,67,2592,93.3C2688,120,2784,140,2880,126.7C2976,113,3072,67,3168,56.7C3264,47,3360,73,3456,83.3C3552,93,3648,87,3744,83.3C3840,80,3936,80,4032,73.3C4128,67,4224,53,4320,66.7C4416,80,4512,120,4608,116.7C4704,113,4800,67,4896,46.7C4992,27,5088,33,5184,50C5280,67,5376,93,5472,96.7C5568,100,5664,80,5760,60C5856,40,5952,20,6048,23.3C6144,27,6240,53,6336,60C6432,67,6528,53,6624,53.3C6720,53,6816,67,6864,73.3L6912,80L6912,200L6864,200C6816,200,6720,200,6624,200C6528,200,6432,200,6336,200C6240,200,6144,200,6048,200C5952,200,5856,200,5760,200C5664,200,5568,200,5472,200C5376,200,5280,200,5184,200C5088,200,4992,200,4896,200C4800,200,4704,200,4608,200C4512,200,4416,200,4320,200C4224,200,4128,200,4032,200C3936,200,3840,200,3744,200C3648,200,3552,200,3456,200C3360,200,3264,200,3168,200C3072,200,2976,200,2880,200C2784,200,2688,200,2592,200C2496,200,2400,200,2304,200C2208,200,2112,200,2016,200C1920,200,1824,200,1728,200C1632,200,1536,200,1440,200C1344,200,1248,200,1152,200C1056,200,960,200,864,200C768,200,672,200,576,200C480,200,384,200,288,200C192,200,96,200,48,200L0,200Z"/></svg>