<svg id="visual" viewBox="0 0 900 600" width="900" height="600" xmlns="http://www.w3.org/2000/svg" xmlns:xlink="http://www.w3.org/1999/xlink" version="1.1"><rect x="0" y="0" width="900" height="600" fill="#ffffff"></rect><path d="M0 99L29 99L29 331L58 331L58 78L87 78L87 85L116 85L116 284L145 284L145 334L174 334L174 459L203 459L203 400L232 400L232 457L261 457L261 209L290 209L290 266L319 266L319 232L348 232L348 390L377 390L377 100L406 100L406 269L435 269L435 538L465 538L465 85L494 85L494 472L523 472L523 438L552 438L552 411L581 411L581 191L610 191L610 103L639 103L639 197L668 197L668 139L697 139L697 468L726 468L726 257L755 257L755 173L784 173L784 135L813 135L813 259L842 259L842 157L871 157L871 144L900 144" fill="none" stroke-linecap="square" stroke-linejoin="miter" stroke="#0066FF" stroke-width="99"></path></svg>