<?xml version="1.0" standalone="no"?>
<svg xmlns:xlink="http://www.w3.org/1999/xlink" id="wave" style="transform:rotate(0deg); transition: 0.3s" viewBox="0 0 1440 200" version="1.1" xmlns="http://www.w3.org/2000/svg"><defs><linearGradient id="sw-gradient-0" x1="0" x2="0" y1="1" y2="0"><stop stop-color="rgba(0, 0, 0, 1)" offset="0%"/><stop stop-color="rgba(0, 0, 0, 1)" offset="100%"/></linearGradient></defs><path style="transform:translate(0, 0px); opacity:1" fill="url(#sw-gradient-0)" d="M0,60L60,76.7C120,93,240,127,360,140C480,153,600,147,720,140C840,133,960,127,1080,103.3C1200,80,1320,40,1440,43.3C1560,47,1680,93,1800,123.3C1920,153,2040,167,2160,166.7C2280,167,2400,153,2520,146.7C2640,140,2760,140,2880,120C3000,100,3120,60,3240,63.3C3360,67,3480,113,3600,123.3C3720,133,3840,107,3960,93.3C4080,80,4200,80,4320,93.3C4440,107,4560,133,4680,150C4800,167,4920,173,5040,156.7C5160,140,5280,100,5400,93.3C5520,87,5640,113,5760,123.3C5880,133,6000,127,6120,116.7C6240,107,6360,93,6480,76.7C6600,60,6720,40,6840,36.7C6960,33,7080,47,7200,50C7320,53,7440,47,7560,36.7C7680,27,7800,13,7920,23.3C8040,33,8160,67,8280,83.3C8400,100,8520,100,8580,100L8640,100L8640,200L8580,200C8520,200,8400,200,8280,200C8160,200,8040,200,7920,200C7800,200,7680,200,7560,200C7440,200,7320,200,7200,200C7080,200,6960,200,6840,200C6720,200,6600,200,6480,200C6360,200,6240,200,6120,200C6000,200,5880,200,5760,200C5640,200,5520,200,5400,200C5280,200,5160,200,5040,200C4920,200,4800,200,4680,200C4560,200,4440,200,4320,200C4200,200,4080,200,3960,200C3840,200,3720,200,3600,200C3480,200,3360,200,3240,200C3120,200,3000,200,2880,200C2760,200,2640,200,2520,200C2400,200,2280,200,2160,200C2040,200,1920,200,1800,200C1680,200,1560,200,1440,200C1320,200,1200,200,1080,200C960,200,840,200,720,200C600,200,480,200,360,200C240,200,120,200,60,200L0,200Z"/></svg>